<svg xmlns="http://www.w3.org/2000/svg" xmlns:xlink="http://www.w3.org/1999/xlink" version="1.1" x="0px" y="0px" viewBox="0 0 95 118.75" enable-background="new 0 0 95 95" xml:space="preserve">
<path d="M57.9,22.5c-4.1-1.4-8.6-2.5-13.1-3.4c-0.2-0.1-0.3-0.2-0.5-0.3C42,18.4,40,18.1,38,18.1c-3.8-0.5-7.5-0.7-11-0.7  c-8.8,0-20.2,1.6-24,9c-8.6,16.6,10.8,27,33.3,39l1.5,0.8c11.4,6,22.5,9.2,32.2,9.2c11.9,0,20.5-4.9,23-13.2  C98.1,46.1,85.6,32,57.9,22.5z M75.1,34.7c-7.4,1.3-15,6.9-24.4,15.9C55.8,40.9,64.1,34,71.3,34C72.7,34,73.9,34.3,75.1,34.7z   M55.3,26.3c-6.1,2.3-13.1,7.6-21.7,16.1c5.2-10,13.1-16.1,21.4-16.1C55,26.3,55.1,26.3,55.3,26.3z M90.2,61.3  c-2.1,6.9-9.7,11-20.1,11c-9.2,0-19.9-3.1-30.8-8.9l-1.5-0.8c-22-11.8-39.3-21-32.1-34.9c2.5-4.7,10-7.3,21.3-7.3c0.1,0,0.3,0,0.4,0  c-6.3,3.3-11.2,10-14.6,20.1c-0.2,0.7,0.1,1.4,0.7,1.8c0.2,0.1,0.5,0.2,0.8,0.2c0.4,0,0.8-0.2,1.1-0.5c9.2-9.8,19.7-19.8,27.6-20.1  c2.7,0.5,5.4,1.1,8,1.7c-9.9,2-18.8,11.4-23.3,25c-0.2,0.7,0.1,1.4,0.7,1.8c0.2,0.1,0.5,0.2,0.8,0.2c0.4,0,0.8-0.2,1.1-0.5  c14.3-15.2,24.6-22.3,32.4-22.3c0,0,0,0,0,0c0.2,0,0.4,0,0.6-0.1c2.4,1,4.9,2.1,7.3,3.3c-10.1,0.6-20.9,11.4-25.6,25.5  c-0.2,0.7,0,1.4,0.6,1.8c0.2,0.2,0.5,0.2,0.8,0.2c0.4,0,0.8-0.2,1.1-0.4C61,44.4,70.5,36.8,79.6,37.5c0.3,0,0.6,0,0.9-0.2  C88.2,43.3,93.3,51.3,90.2,61.3z M35,21.2c-5.3,2.7-10.8,7.6-16.4,13.1C22.6,26.3,28,22,35,21.2z"/>
</svg>