<?xml version="1.0" encoding="utf-8"?>
<!-- Generator: Adobe Illustrator 27.9.0, SVG Export Plug-In . SVG Version: 6.00 Build 0)  -->
<svg version="1.1" id="Layer_1" xmlns:serif="http://www.serif.com/"
	 xmlns="http://www.w3.org/2000/svg" xmlns:xlink="http://www.w3.org/1999/xlink" x="0px" y="0px" viewBox="0 0 100 100"
	 style="enable-background:new 0 0 100 100;" xml:space="preserve">
<style type="text/css">
	.st0{fill-rule:evenodd;clip-rule:evenodd;}
</style>
<g transform="matrix(1,0,0,1,-322.762,-70.2635)">
	<path class="st0" d="M328.8,152.2l6.5,16c0.3,0.6,0.9,1.1,1.6,1.1h71.7c0.7,0,1.3-0.4,1.6-1.1l6.5-16c3.6-1.9,6-5.3,6-9
		c0-4.1-2.8-7.7-6.9-9.5c-5.3-16.5-23.9-25.1-42.8-25.2c-18.8-0.1-37.7,8.4-43.4,25.2c-4.2,1.8-6.9,5.4-6.9,9.5
		C322.8,146.9,325.2,150.3,328.8,152.2z M412.5,153.6c-0.7,0.1-1.4,0.2-2.2,0.2c-3.8,0-7.1-1.4-9.4-3.6c-2.3,2.2-5.6,3.6-9.4,3.6
		c-3.7,0-7.1-1.4-9.4-3.6c-2.3,2.2-5.6,3.6-9.4,3.6c-3.7,0-7.1-1.4-9.4-3.6c-2.3,2.2-5.6,3.6-9.4,3.6c-3.7,0-7.1-1.4-9.4-3.6
		c-2.3,2.2-5.6,3.6-9.4,3.6c-0.8,0-1.5-0.1-2.2-0.2l5,12.3h69.4L412.5,153.6z M331.6,136.6c0.5-0.2,0.9-0.6,1.1-1.1
		c5-16,22.8-23.6,40.4-23.6c17.6,0.1,35.2,7.9,39.7,23.5c0.2,0.5,0.6,1,1.1,1.1c3.1,1.1,5.4,3.6,5.4,6.5c0,4-4.1,7.1-9.1,7.1
		c-3.4,0-6.4-1.5-8-3.7c-0.3-0.5-0.9-0.7-1.4-0.7s-1.1,0.3-1.4,0.7c-1.6,2.3-4.6,3.7-8,3.7c-3.4,0-6.4-1.5-8-3.7
		c-0.3-0.5-0.9-0.7-1.4-0.7s-1.1,0.3-1.4,0.7c-1.6,2.3-4.6,3.7-8,3.7c-3.4,0-6.4-1.5-8-3.7c-0.3-0.5-0.9-0.7-1.4-0.7
		s-1.1,0.3-1.4,0.7c-1.6,2.3-4.6,3.7-8,3.7c-3.4,0-6.4-1.5-8-3.7c-0.3-0.5-0.9-0.7-1.4-0.7s-1.1,0.3-1.4,0.7c-1.6,2.3-4.6,3.7-8,3.7
		c-4.9,0-9.1-3.1-9.1-7.1C326.2,140.2,328.5,137.7,331.6,136.6z M371,122.8v6.1c0,1,0.8,1.7,1.7,1.7s1.7-0.8,1.7-1.7v-6.1
		c0-1-0.8-1.7-1.7-1.7S371,121.9,371,122.8z M381.5,123.9l4.8,6.1c0.6,0.7,1.7,0.9,2.4,0.3c0.7-0.6,0.9-1.7,0.3-2.4l-4.8-6.1
		c-0.6-0.7-1.7-0.9-2.4-0.3C381.1,122,381,123.1,381.5,123.9z M361.3,121.7l-4.8,6.1c-0.6,0.7-0.5,1.8,0.3,2.4
		c0.7,0.6,1.8,0.5,2.4-0.3l4.8-6.1c0.6-0.7,0.5-1.8-0.3-2.4C362.9,120.9,361.9,121,361.3,121.7z M359.7,71.5c0,0-4.6,3.3-4.6,9.3
		c0,2.9,1.2,4.9,2.5,6.7c1,1.4,2.1,2.7,2.4,4.7c0.6,4.4-3.3,7.4-3.3,7.4c-0.8,0.6-0.9,1.7-0.3,2.4c0.6,0.8,1.7,0.9,2.4,0.3
		c0,0,5.5-4.3,4.6-10.6c-0.3-2.2-1.2-3.7-2.3-5.2c-1.2-1.7-2.5-3.1-2.5-5.7c0-4.1,3.2-6.5,3.2-6.5c0.8-0.6,0.9-1.6,0.4-2.4
		C361.5,71.1,360.5,71,359.7,71.5z M373.2,71.5c0,0-4.6,3.3-4.6,9.3c0,2.9,1.2,4.9,2.5,6.7c1,1.4,2.1,2.7,2.4,4.7
		c0.6,4.4-3.3,7.4-3.3,7.4c-0.8,0.6-0.9,1.7-0.3,2.4c0.6,0.8,1.7,0.9,2.4,0.3c0,0,5.5-4.3,4.6-10.6c-0.3-2.2-1.2-3.7-2.3-5.2
		c-1.2-1.7-2.6-3.1-2.6-5.7c0-4.1,3.2-6.5,3.2-6.5c0.8-0.6,0.9-1.6,0.4-2.4C375,71.1,373.9,71,373.2,71.5z M386.7,71.5
		c0,0-4.6,3.3-4.6,9.3c0,2.9,1.2,4.9,2.5,6.7c1,1.4,2.1,2.7,2.4,4.7c0.6,4.4-3.3,7.4-3.3,7.4c-0.8,0.6-0.9,1.7-0.3,2.4
		c0.6,0.8,1.7,0.9,2.4,0.3c0,0,5.5-4.3,4.6-10.6c-0.3-2.2-1.2-3.7-2.3-5.2c-1.2-1.7-2.6-3.1-2.6-5.7c0-4.1,3.2-6.5,3.2-6.5
		c0.8-0.6,0.9-1.6,0.4-2.4C388.5,71.1,387.4,71,386.7,71.5z"/>
</g>
</svg>
