<svg xmlns="http://www.w3.org/2000/svg" xmlns:xlink="http://www.w3.org/1999/xlink" xmlns:serif="http://www.serif.com/" viewBox="0 0 32 40" version="1.1" xml:space="preserve" style="" x="0px" y="0px" fill-rule="evenodd" clip-rule="evenodd" stroke-linejoin="round" stroke-miterlimit="2"><g transform="matrix(1,0,0,1,-322.762,-70.2635)"><path d="M326.012,95.529L327.902,100.181C327.978,100.369 328.162,100.492 328.365,100.492L349.16,100.492C349.363,100.492 349.546,100.369 349.623,100.181L351.513,95.529C352.567,94.985 353.262,94.001 353.262,92.905C353.262,91.717 352.461,90.667 351.258,90.159C349.713,85.369 344.315,82.879 338.855,82.857C333.395,82.836 327.934,85.28 326.271,90.157C325.066,90.665 324.262,91.716 324.262,92.905C324.262,94.001 324.958,94.985 326.012,95.529ZM350.272,95.926C350.066,95.957 349.853,95.973 349.636,95.973C348.548,95.973 347.577,95.567 346.918,94.937C346.258,95.567 345.287,95.973 344.199,95.973C343.112,95.973 342.141,95.567 341.481,94.937C340.821,95.567 339.85,95.973 338.762,95.973C337.675,95.973 336.704,95.567 336.044,94.937C335.384,95.567 334.413,95.973 333.325,95.973C332.238,95.973 331.267,95.567 330.607,94.937C329.947,95.567 328.976,95.973 327.889,95.973C327.671,95.973 327.459,95.957 327.252,95.926L328.702,99.492C328.702,99.492 348.823,99.492 348.823,99.492L350.272,95.926ZM326.836,91.011C326.986,90.959 327.102,90.838 327.149,90.687C328.591,86.059 333.75,83.837 338.851,83.857C343.948,83.878 349.048,86.135 350.373,90.678C350.418,90.834 350.535,90.957 350.688,91.011C351.597,91.327 352.262,92.044 352.262,92.905C352.262,94.076 351.062,94.973 349.636,94.973C348.651,94.973 347.784,94.545 347.329,93.888C347.235,93.753 347.082,93.673 346.918,93.673C346.754,93.673 346.6,93.753 346.507,93.888C346.051,94.545 345.184,94.973 344.199,94.973C343.214,94.973 342.347,94.545 341.892,93.888C341.798,93.753 341.645,93.673 341.481,93.673C341.317,93.673 341.163,93.753 341.07,93.888C340.614,94.545 339.747,94.973 338.762,94.973C337.777,94.973 336.91,94.545 336.455,93.888C336.361,93.753 336.208,93.673 336.044,93.673C335.88,93.673 335.726,93.753 335.633,93.888C335.178,94.545 334.31,94.973 333.325,94.973C332.34,94.973 331.473,94.545 331.018,93.888C330.924,93.753 330.771,93.673 330.607,93.673C330.443,93.673 330.29,93.753 330.196,93.888C329.741,94.545 328.874,94.973 327.889,94.973C326.463,94.973 325.262,94.076 325.262,92.905C325.262,92.044 325.928,91.327 326.836,91.011ZM338.262,87.001L338.262,88.768C338.262,89.044 338.486,89.268 338.762,89.268C339.038,89.268 339.262,89.044 339.262,88.768L339.262,87.001C339.262,86.725 339.038,86.501 338.762,86.501C338.486,86.501 338.262,86.725 338.262,87.001ZM341.309,87.31L342.696,89.077C342.866,89.294 343.18,89.332 343.398,89.162C343.615,88.991 343.653,88.677 343.482,88.46L342.096,86.693C341.925,86.476 341.611,86.438 341.394,86.608C341.177,86.778 341.139,87.093 341.309,87.31ZM335.429,86.693L334.042,88.46C333.872,88.677 333.91,88.991 334.127,89.162C334.344,89.332 334.659,89.294 334.829,89.077L336.216,87.31C336.386,87.093 336.348,86.778 336.131,86.608C335.914,86.438 335.599,86.476 335.429,86.693ZM334.969,72.131C334.969,72.131 333.635,73.101 333.635,74.818C333.635,75.671 333.976,76.234 334.36,76.774C334.644,77.174 334.964,77.554 335.045,78.135C335.223,79.417 334.088,80.269 334.088,80.269C333.869,80.436 333.827,80.75 333.994,80.97C334.162,81.189 334.476,81.231 334.695,81.064C334.695,81.064 336.291,79.831 336.036,77.997C335.948,77.372 335.678,76.91 335.374,76.476C335.038,75.996 334.635,75.569 334.635,74.818C334.635,73.619 335.559,72.938 335.559,72.938C335.782,72.775 335.831,72.462 335.668,72.239C335.505,72.017 335.192,71.968 334.969,72.131ZM338.882,72.131C338.882,72.131 337.548,73.101 337.548,74.818C337.548,75.671 337.889,76.234 338.273,76.774C338.557,77.174 338.877,77.554 338.958,78.135C339.137,79.417 338.002,80.269 338.002,80.269C337.782,80.436 337.74,80.75 337.907,80.97C338.075,81.189 338.389,81.231 338.608,81.064C338.608,81.064 340.204,79.831 339.949,77.997C339.862,77.372 339.591,76.91 339.288,76.476C338.952,75.996 338.548,75.569 338.548,74.818C338.548,73.619 339.472,72.938 339.472,72.938C339.695,72.775 339.744,72.462 339.581,72.239C339.418,72.017 339.105,71.968 338.882,72.131ZM342.795,72.131C342.795,72.131 341.461,73.101 341.461,74.818C341.461,75.671 341.802,76.234 342.186,76.774C342.47,77.174 342.79,77.554 342.871,78.135C343.05,79.417 341.915,80.269 341.915,80.269C341.695,80.436 341.653,80.75 341.821,80.97C341.988,81.189 342.302,81.231 342.521,81.064C342.521,81.064 344.117,79.831 343.862,77.997C343.775,77.372 343.504,76.91 343.201,76.476C342.865,75.996 342.461,75.569 342.461,74.818C342.461,73.619 343.385,72.938 343.385,72.938C343.608,72.775 343.657,72.462 343.494,72.239C343.331,72.017 343.018,71.968 342.795,72.131Z"/></g></svg>