<svg xmlns="http://www.w3.org/2000/svg" xmlns:xlink="http://www.w3.org/1999/xlink" version="1.1" x="0px" y="0px" viewBox="0 0 100 125" enable-background="new 0 0 100 100" xml:space="preserve"><g><path fill="none" d="M36.639,54.677c-0.792-5.151-1.386-10.337-1.868-15.526c-0.335-3.613-1.467-8.553-0.386-12.231   c-4.563-1.494-11.381,1.753-14.873,4.286c-2.016,1.462-4.649,3.543-4.644,6.252c0.005,2.781,1.916,5.939,3.047,8.359   c2.2,4.706,4.759,9.241,7.636,13.566c0.241,0.363,0.481,0.727,0.727,1.087c1.525,2.232,3.291,5.98,6.369,5.826   c2.109-0.105,4.325-1.213,5.929-2.634c-1.154-2.303-1.452-5.357-1.789-7.929C36.739,55.371,36.691,55.016,36.639,54.677z"/><path fill="none" d="M63.672,55.511c0.547-1.901,1.021-3.825,1.456-5.742c1.431-6.311,3-12.97,3.261-19.442   c0.04-0.985,0.115-2.174,0.061-3.312c-0.108-0.236-0.138-0.507-0.06-0.759c-0.059-0.519-0.152-1.016-0.306-1.458   c-0.733-2.104-2.382-2.682-4.214-3.323c-3.221-1.128-6.651-1.48-10.048-1.404c-5.249,0.117-14.405,0.954-17.156,6.437   c-1.163,2.319-0.445,5.728-0.256,8.226c0.159,2.087,0.345,4.172,0.551,6.255c0.462,4.661,1.006,9.321,1.743,13.947   c0.021,0.129,0.039,0.271,0.058,0.406c0.361,2.491,0.571,5.754,1.873,7.907c2.766,2.862,10.007,2.153,13.546,1.794   c3.81-0.387,6.704-1.593,8.166-5.467C62.849,58.244,63.277,56.883,63.672,55.511z M40.913,32.016   c0.809-1.397,1.747-2.705,2.795-3.933c0.843-0.988,2.26,0.443,1.424,1.424c-0.937,1.099-1.757,2.276-2.48,3.525   C42.001,34.154,40.262,33.139,40.913,32.016z M46.788,33.456c-0.486,0.382-0.973,0.764-1.459,1.146   c-0.429,0.337-1.001,0.423-1.424,0c-0.352-0.352-0.428-1.088,0-1.424c0.486-0.382,0.973-0.764,1.459-1.146   c0.429-0.337,1.001-0.423,1.424,0C47.14,32.384,47.216,33.12,46.788,33.456z"/><path fill="none" d="M14.701,43.529c-0.188-0.439-0.384-0.886-0.577-1.339c-2.747,2.828-4.391,6.709-5.75,10.366   c-1.888,5.082-1.753,9.946-0.142,15.083c0.707,2.256,1.598,6.26,3.597,7.806c0.636,0.492,1.233,0.706,1.792,0.719   c2.527,0.06,4.279-4.031,5.369-5.57c1.973-2.785,4.38-4.796,7.368-6.361c-0.984-1.261-1.925-2.571-2.825-3.921   C20.017,55.041,17.12,49.194,14.701,43.529z"/><path fill="none" d="M83.431,50.477c1.467-2.496,3.248-5.311,3.963-8.119c0.883-3.467-0.208-6.118-2.712-8.515   c-1.879-1.8-4.282-2.904-6.576-4.063c-2.006-1.013-5.313-3.482-7.71-2.605c0.015,0.461,0.022,0.912,0.028,1.329   c0.098,6.444-1.513,13.034-2.815,19.305c-0.57,2.743-1.214,5.474-1.995,8.165c-0.167,0.574-0.331,1.149-0.512,1.719   c-0.692,2.184-1.388,4.75-2.964,6.498c1.181,1.227,3.102,1.783,4.642,2.487c1.9,0.868,3.903,1.612,5.717-0.193   c0.852-0.848,1.535-2.159,2.245-3.139c0.69-0.952,1.379-1.907,2.063-2.864C79.133,57.226,81.403,53.928,83.431,50.477z"/><path fill="none" d="M87.878,46.549c-0.502,1.003-1.04,1.971-1.542,2.89c-2.1,3.844-4.549,7.484-7.076,11.058   c-0.272,0.385-0.547,0.803-0.825,1.238c-0.911,1.427-1.862,3.056-2.92,4.484c2.289,1.372,4.402,2.794,5.309,5.485   c0.52,1.543,0.522,3.152,0.69,4.753c0.124,1.185,0.122,2.775,1.377,3.047c0.477,0.103,1.13,0.022,2.048-0.353   c1.058-0.432,2.115-2.217,2.742-3.049c3.328-4.42,5.041-9.552,5.269-15.074C93.137,56.501,91.701,49.58,87.878,46.549z"/><path d="M88.732,44.688c0.719-1.744,1.206-3.56,1.105-5.379c-0.165-2.98-2.271-5.679-4.462-7.541   c-2.582-2.193-5.905-3.598-8.92-5.088c-1.949-0.963-4.143-2.08-6.237-1.579c-0.169-1.074-0.487-2.105-1.114-2.901   c-1.326-1.686-3.831-2.436-5.802-3.019c-5.305-1.57-11.142-1.395-16.538-0.399c-4.102,0.758-9.319,2.461-11.594,6.31   c-5.327-1.731-12.485,1.369-16.675,4.376c-2.048,1.47-4.41,3.349-5.296,5.802c-0.591,1.637-0.368,3.27,0.136,4.853   c-0.001,0.001-0.001,0.001-0.002,0.001c-3.586,3.261-5.766,8.278-7.218,12.841C4.037,59.499,5.065,65.42,7.54,71.714   c1.404,3.569,3.952,8.26,8.462,5.782c2.18-1.198,3.119-3.554,4.472-5.51c1.895-2.74,4.224-4.657,7.173-6.158   c0.053,0.063,0.105,0.129,0.158,0.192c3.262,3.842,8.644,2.215,12.042-0.784c2.416,1.827,6.471,1.896,9.224,1.979   c3.386,0.102,8.277,0.188,11.481-1.74c1.448,1.607,3.633,2.232,5.66,3.142c2.119,0.952,4.81,1.731,6.867,0.19   c0.392-0.294,0.767-0.641,1.13-1.021c2.617,1.578,4.626,3.038,5.102,6.392c0.274,1.931-0.004,4.172,1.042,5.902   c2.909,4.814,7.426-0.709,9.354-3.357c3.675-5.044,5.496-11.328,5.275-17.574C94.812,54.339,92.85,47.681,88.732,44.688z    M18.991,70.595c-1.09,1.539-2.842,5.629-5.369,5.57c-0.559-0.013-1.156-0.227-1.792-0.719c-1.999-1.547-2.89-5.551-3.597-7.806   c-1.611-5.138-1.746-10.002,0.142-15.083c1.359-3.657,3.003-7.538,5.75-10.366c0.193,0.453,0.389,0.9,0.577,1.339   c2.419,5.665,5.316,11.512,8.832,16.784c0.9,1.35,1.841,2.66,2.825,3.921C23.371,65.8,20.964,67.81,18.991,70.595z M32.647,66.297   c-3.077,0.154-4.844-3.595-6.369-5.826c-0.246-0.36-0.485-0.724-0.727-1.087c-2.877-4.325-5.437-8.86-7.636-13.566   c-1.131-2.42-3.042-5.578-3.047-8.359c-0.005-2.709,2.628-4.79,4.644-6.252c3.492-2.533,10.31-5.78,14.873-4.286   c-1.081,3.679,0.051,8.619,0.386,12.231c0.482,5.189,1.075,10.374,1.868,15.526c0.052,0.339,0.1,0.694,0.147,1.056   c0.337,2.572,0.636,5.627,1.789,7.929C36.973,65.084,34.756,66.191,32.647,66.297z M54.181,65.04   c-3.539,0.359-10.78,1.069-13.546-1.794c-1.302-2.153-1.511-5.416-1.873-7.907c-0.019-0.134-0.037-0.276-0.058-0.406   c-0.737-4.627-1.281-9.286-1.743-13.947c-0.206-2.083-0.393-4.168-0.551-6.255c-0.19-2.498-0.907-5.907,0.256-8.226   c2.75-5.483,11.906-6.32,17.156-6.437c3.396-0.076,6.827,0.277,10.048,1.404c1.832,0.642,3.482,1.22,4.214,3.323   c0.154,0.442,0.247,0.939,0.306,1.458c-0.078,0.253-0.048,0.524,0.06,0.759c0.055,1.138-0.021,2.327-0.061,3.312   c-0.261,6.473-1.829,13.132-3.261,19.442c-0.435,1.918-0.909,3.842-1.456,5.742c-0.395,1.372-0.823,2.733-1.325,4.063   C60.885,63.447,57.991,64.653,54.181,65.04z M72.498,66.484c-1.814,1.805-3.818,1.061-5.717,0.193   c-1.54-0.704-3.461-1.26-4.642-2.487c1.576-1.748,2.272-4.314,2.964-6.498c0.181-0.57,0.345-1.145,0.512-1.719   c0.781-2.691,1.425-5.422,1.995-8.165c1.303-6.272,2.913-12.861,2.815-19.305c-0.006-0.417-0.013-0.868-0.028-1.329   c2.397-0.877,5.704,1.593,7.71,2.605c2.294,1.158,4.697,2.263,6.576,4.063c2.504,2.398,3.594,5.049,2.712,8.515   c-0.715,2.808-2.496,5.623-3.963,8.119c-2.028,3.451-4.298,6.75-6.626,10.005c-0.684,0.957-1.373,1.912-2.063,2.864   C74.033,64.325,73.35,65.636,72.498,66.484z M87.681,76.101c-0.627,0.832-1.683,2.617-2.742,3.049   c-0.919,0.375-1.571,0.456-2.048,0.353c-1.255-0.271-1.253-1.861-1.377-3.047c-0.168-1.601-0.169-3.21-0.69-4.753   c-0.907-2.691-3.02-4.114-5.309-5.485c1.057-1.429,2.008-3.057,2.92-4.484c0.278-0.435,0.552-0.853,0.825-1.238   c2.527-3.573,4.976-7.214,7.076-11.058c0.502-0.919,1.041-1.887,1.542-2.89c3.824,3.031,5.26,9.952,5.072,14.479   C92.721,66.549,91.009,71.681,87.681,76.101z"/><path d="M43.708,28.083c-1.048,1.228-1.986,2.536-2.795,3.933c-0.651,1.123,1.089,2.138,1.739,1.016   c0.724-1.249,1.543-2.427,2.48-3.525C45.968,28.526,44.55,27.095,43.708,28.083z"/><path d="M45.364,32.032c-0.486,0.382-0.973,0.764-1.459,1.146c-0.428,0.336-0.352,1.072,0,1.424c0.423,0.423,0.995,0.337,1.424,0   c0.486-0.382,0.973-0.764,1.459-1.146c0.428-0.336,0.352-1.072,0-1.424C46.366,31.61,45.794,31.695,45.364,32.032z"/></g></svg>